<svg fill="none" height="24" viewBox="0 0 24 24" width="24" xmlns="http://www.w3.org/2000/svg"><path d="m20.157 8.87466.2031.45691zm0-.74932.2031-.45691zm-8.9693 4.01366-.203.4569zm-7.34471-3.26434-.20307.45691zm7.34471-4.01365-.203-.4569zm1.6246 0 .203-.4569zm-1.8276-.4569-7.34478 3.26432.40614.91381 7.34474-3.26432zm-7.34478 4.92746 7.34478 3.26433.4061-.9138-7.34474-3.26434zm9.37538 3.26433 7.3448-3.26433-.4062-.91381-7.3447 3.26434zm7.3448-4.92747-7.3448-3.26432-.4061.91381 7.3447 3.26432zm0 1.66314c.7205-.32025.7205-1.34289 0-1.66314l-.4062.91381c-.012-.00536-.0281-.01782-.0397-.03661-.0103-.01667-.0137-.03267-.0137-.04563s.0034-.02896.0137-.04563c.0116-.01879.0277-.03125.0397-.03661zm-9.3754 3.26433c.6464.2873 1.3842.2873 2.0306 0l-.4061-.9138c-.3878.1724-.8306.1724-1.2184 0zm-7.34478-4.92747c-.72055.32025-.72055 1.34289 0 1.66314l.40614-.91381c.01206.00536.02819.01782.03979.03661.01029.01667.01366.03267.01366.04563s-.00337.02896-.01366.04563c-.0116.01879-.02773.03125-.03979.03661zm7.75088-2.35051c.3878-.17238.8306-.17238 1.2184 0l.4061-.91381c-.6464-.2873-1.3842-.2873-2.0306 0z" fill="#33363f"/><path d="m20.5 8.5v4" stroke="#33363f" stroke-linecap="round" stroke-linejoin="round"/><path d="m7 10.5c0-.2761-.22386-.5-.5-.5s-.5.2239-.5.5zm-.5 5h-.5c0 .0409.00501.0816.01493.1213zm11 0 .4851.1213c.0099-.0397.0149-.0804.0149-.1213zm.5-5c0-.2761-.2239-.5-.5-.5s-.5.2239-.5.5zm-12 0v5h1v-5zm.5 5c-.48507.1213-.48493.1218-.48479.1224.00006.0002.0002.0008.00031.0012.0002.0008.00042.0016.00064.0025.00046.0018.00095.0036.00149.0056.00107.004.00232.0085.00376.0134.00289.01.00653.0218.01108.0355.0091.0273.02181.0617.03919.1023.0348.0812.08819.1864.16854.3069.16162.2425.4275.5396.85743.8262.85823.5722 2.34053 1.084 4.90235 1.084v-1c-2.43818 0-3.70588-.4882-4.34765-.916-.32007-.2134-.49169-.4163-.58007-.5488-.04465-.067-.06938-.118-.08146-.1462-.00605-.0142-.00898-.0227-.00964-.0247-.00034-.001-.00011-.0003.00058.002.00034.0012.0008.0028.00136.0049.00027.001.00058.0022.0009.0034.00017.0006.00034.0013.00051.002.00009.0003.00022.0009.00027.001.00013.0006.00027.0011-.4848.1224zm5.5 2.5c2.5618 0 4.0441-.5118 4.9024-1.084.4299-.2866.6958-.5837.8574-.8262.0803-.1205.1337-.2257.1685-.3069.0174-.0406.0301-.075.0392-.1023.0046-.0137.0082-.0255.0111-.0355.0014-.0049.0027-.0094.0038-.0134.0005-.002.001-.0038.0014-.0056.0003-.0009.0005-.0017.0007-.0025.0001-.0004.0002-.001.0003-.0012.0001-.0006.0003-.0011-.4848-.1224s-.4849-.1218-.4848-.1224c0-.0001.0002-.0007.0003-.001.0001-.0007.0003-.0014.0005-.002.0003-.0012.0006-.0024.0009-.0034.0005-.0021.001-.0037.0013-.0049.0007-.0023.001-.003.0006-.002-.0006.002-.0036.0105-.0096.0247-.0121.0282-.0368.0792-.0815.1462-.0884.1325-.26.3354-.5801.5488-.6417.4278-1.9094.916-4.3476.916zm6-2.5v-5h-1v5z" fill="#33363f"/></svg>