<svg viewBox="0 0 1024.179 1063.18" xmlns="http://www.w3.org/2000/svg"><path d="M819.424 628.478l-62.85-63.074 121.072-120.628c35.44-35.456 57.358-84.43 57.358-138.522 0-108.218-87.728-195.946-195.946-195.946-54.126 0-103.126 21.945-138.588 57.424l-120.584 121.03-63.03-62.852 120.63-121.073c51.575-51.593 122.836-83.505 201.55-83.505 157.395 0 284.988 127.594 284.988 284.988 0 78.68-31.885 149.914-83.44 201.485h.002zm-534.412 416.72h-.135C127.544 1045.2 0 917.656 0 760.323c0-78.7 31.913-149.947 83.505-201.505l.002-.002 121.117-120.672 62.85 63.074-121.072 120.628c-35.44 35.456-57.358 84.43-57.358 138.522 0 108.218 87.728 195.946 195.946 195.946 54.126 0 103.126-21.945 138.588-57.424v-.002L544.163 777.86l63.074 62.85-120.628 121.074c-51.286 51.53-122.268 83.417-200.697 83.417h-.946.05zm46.16-268.095l-62.94-62.94 424.644-424.645 62.94 62.94z"/></svg>